<?xml version="1.0" standalone="no"?>
<!DOCTYPE svg PUBLIC "-//W3C//DTD SVG 20010904//EN"
 "http://www.w3.org/TR/2001/REC-SVG-20010904/DTD/svg10.dtd">
<svg version="1.0" xmlns="http://www.w3.org/2000/svg"
 width="225.000000pt" height="225.000000pt" viewBox="0 0 225.000000 225.000000"
 preserveAspectRatio="xMidYMid meet">

<g transform="translate(0.000000,225.000000) scale(0.100000,-0.100000)"
fill="#000000" stroke="none">
<path d="M356 1354 c-19 -19 -20 -25 -3 -48 19 -26 61 -18 65 12 7 44 -32 67
-62 36z"/>
<path d="M1032 1301 c-6 -4 -32 -60 -58 -126 -25 -66 -50 -130 -55 -143 -8
-21 -7 -23 18 -20 25 3 31 13 65 98 20 52 40 94 44 93 4 -1 24 -43 44 -95 32
-83 38 -93 63 -96 l27 -3 -20 53 c-97 250 -101 256 -128 239z"/>
<path d="M1465 1295 c-112 -40 -139 -176 -50 -254 65 -56 157 -51 213 13 43
50 50 104 20 164 -36 73 -109 103 -183 77z m96 -51 c42 -21 64 -75 49 -120
-24 -72 -102 -96 -159 -48 -56 47 -48 133 17 168 35 20 56 20 93 0z"/>
<path d="M1715 1294 c-12 -12 -15 -43 -15 -150 l0 -134 25 0 c24 0 24 2 27 93
l3 92 29 -50 c37 -63 56 -85 72 -85 7 0 30 30 51 68 l38 67 3 -92 c3 -91 3
-93 27 -93 l25 0 0 139 c0 113 -3 141 -16 151 -20 18 -31 6 -87 -93 l-45 -79
-48 86 c-27 47 -54 88 -61 90 -7 3 -19 -2 -28 -10z"/>
<path d="M271 1284 c-26 -19 -27 -46 -1 -69 17 -15 24 -16 46 -7 20 10 25 18
22 43 -4 39 -35 55 -67 33z"/>
<path d="M744 1288 c-22 -10 -44 -47 -44 -73 0 -50 40 -81 110 -87 32 -3 35
-6 35 -33 l0 -30 -75 -5 c-68 -5 -75 -7 -78 -27 -3 -22 -1 -23 78 -23 73 0 83
3 105 25 47 46 25 126 -37 140 -13 2 -36 6 -53 7 -19 2 -31 9 -33 21 -7 34 17
47 84 47 62 0 64 1 64 25 0 24 -2 25 -67 24 -38 0 -78 -5 -89 -11z"/>
<path d="M1160 1275 c0 -22 4 -25 35 -25 l35 0 0 -120 0 -120 25 0 25 0 0 120
0 120 30 0 c25 0 30 4 30 25 0 25 -1 25 -90 25 -89 0 -90 0 -90 -25z"/>
<path d="M446 1281 c-10 -16 5 -41 24 -41 19 0 34 25 24 41 -3 5 -14 9 -24 9
-10 0 -21 -4 -24 -9z"/>
<path d="M363 1199 c-30 -11 -38 -45 -19 -74 35 -53 109 -11 86 49 -10 27 -36
37 -67 25z"/>
<path d="M430 1079 c-14 -26 11 -69 40 -69 11 0 27 11 35 24 23 34 5 66 -35
66 -19 0 -33 -7 -40 -21z"/>
<path d="M280 1055 c-25 -30 10 -61 38 -33 7 7 8 17 1 30 -12 22 -23 23 -39 3z"/>
<path d="M1024 1045 c-8 -21 2 -45 19 -45 8 0 20 7 27 15 10 12 10 18 0 30 -7
8 -19 15 -27 15 -7 0 -16 -7 -19 -15z"/>
<path d="M356 1004 c-19 -19 -20 -25 -3 -48 19 -26 61 -18 65 12 7 44 -32 67
-62 36z"/>
<path d="M1860 961 c0 -14 -6 -17 -25 -13 -42 8 -47 -54 -4 -66 8 -2 5 2 -5
10 -12 10 -17 21 -13 32 10 24 42 16 42 -11 0 -12 4 -25 8 -29 4 -4 7 16 7 44
0 29 -2 52 -5 52 -3 0 -5 -8 -5 -19z"/>
<path d="M1011 963 c0 -5 8 -26 18 -48 17 -38 18 -39 29 -18 7 12 17 34 22 50
9 26 9 27 -5 9 -8 -11 -15 -26 -15 -33 0 -24 -18 -13 -29 17 -9 27 -22 41 -20
23z"/>
<path d="M1268 957 c-2 -7 -1 -28 3 -47 l6 -35 2 32 c0 17 5 33 10 35 5 2 3 8
-4 15 -10 9 -14 9 -17 0z"/>
<path d="M1587 963 c-13 -12 -7 -23 18 -35 26 -12 34 -38 12 -38 -7 0 -18 5
-25 12 -9 9 -12 9 -12 1 0 -14 36 -27 50 -18 14 9 12 45 -2 45 -7 0 -20 5 -28
10 -13 9 -13 11 0 20 8 5 10 10 4 10 -6 0 -14 -3 -17 -7z"/>
<path d="M1625 960 c3 -5 8 -10 11 -10 2 0 4 5 4 10 0 6 -5 10 -11 10 -5 0 -7
-4 -4 -10z"/>
<path d="M1668 958 c-2 -7 -1 -26 3 -43 4 -20 7 -23 8 -9 0 11 6 25 13 32 9 9
9 12 -1 12 -7 0 -9 5 -6 10 3 6 2 10 -3 10 -6 0 -12 -6 -14 -12z"/>
<path d="M1107 944 c-4 -4 -7 -18 -7 -30 0 -25 35 -43 51 -27 6 6 1 9 -13 9
-17 -1 -24 5 -26 22 -3 16 2 22 16 22 11 0 23 -5 25 -10 3 -6 4 -5 3 2 -3 14
-38 23 -49 12z"/>
<path d="M1181 910 l1 -35 7 30 c9 43 39 45 44 3 l4 -33 1 38 c2 36 1 37 -28
35 -28 -2 -30 -5 -29 -38z"/>
<path d="M1323 921 c1 -21 8 -36 17 -39 12 -4 13 -2 3 9 -6 8 -13 25 -16 39
-4 17 -5 15 -4 -9z"/>
<path d="M1368 920 c-3 -17 -1 -33 4 -36 4 -3 8 11 8 30 0 44 -6 47 -12 6z"/>
<path d="M1408 920 c2 -16 6 -30 8 -30 2 0 4 14 4 30 0 17 -4 30 -8 30 -5 0
-7 -13 -4 -30z"/>
<path d="M1467 944 c-13 -13 -7 -52 9 -58 24 -9 31 -7 12 5 -25 14 -23 49 1
49 11 0 22 -5 24 -10 3 -6 4 -5 3 2 -3 14 -38 23 -49 12z"/>
<path d="M1723 921 c1 -21 8 -36 17 -39 12 -4 13 -2 3 9 -6 8 -13 25 -16 39
-4 17 -5 15 -4 -9z"/>
<path d="M1768 920 c-3 -17 -1 -33 4 -36 4 -3 8 11 8 30 0 44 -6 47 -12 6z"/>
<path d="M1898 920 c2 -16 6 -30 8 -30 2 0 4 14 4 30 0 17 -4 30 -8 30 -5 0
-7 -13 -4 -30z"/>
<path d="M1933 934 c-15 -39 38 -67 60 -32 8 12 7 21 -2 32 -17 21 -50 20 -58
0z m51 -3 c9 -14 -4 -41 -19 -41 -18 0 -28 17 -21 35 6 17 32 20 40 6z"/>
</g>
</svg>
